<?xml version="1.0"?>
<!-- Generated by SVGo -->
<svg width="1920" height="1080"
     xmlns="http://www.w3.org/2000/svg"
     xmlns:xlink="http://www.w3.org/1999/xlink">
<defs>
<style>
@import url("https://fonts.googleapis.com/css2?family=Roboto:wght@100;300;400");
</style>
</defs>
<rect x="0" y="0" width="1920" height="1080" style="fill:#36393F" />
<line x1="76" y1="1080" x2="76" y2="0" style="stroke:white" />
<line x1="444" y1="1080" x2="444" y2="0" style="stroke:white" />
<line x1="812" y1="1080" x2="812" y2="0" style="stroke:white" />
<line x1="1180" y1="1080" x2="1180" y2="0" style="stroke:white" />
<line x1="1548" y1="1080" x2="1548" y2="0" style="stroke:white" />
<text x="0" y="20" style="font-size:21px;font-family:Roboto;fill:white;font-size:20px" >8h00</text>
<line x1="0" y1="0" x2="1920" y2="0" style="stroke:white" />
<text x="0" y="69" style="font-size:21px;font-family:Roboto;fill:white;font-size:20px" >8h30</text>
<line x1="0" y1="49" x2="1920" y2="49" style="stroke:white" />
<text x="0" y="118" style="font-size:21px;font-family:Roboto;fill:white;font-size:20px" >9h00</text>
<line x1="0" y1="98" x2="1920" y2="98" style="stroke:white" />
<text x="0" y="167" style="font-size:21px;font-family:Roboto;fill:white;font-size:20px" >9h30</text>
<line x1="0" y1="147" x2="1920" y2="147" style="stroke:white" />
<text x="0" y="216" style="font-size:21px;font-family:Roboto;fill:white;font-size:20px" >10h00</text>
<line x1="0" y1="196" x2="1920" y2="196" style="stroke:white" />
<text x="0" y="265" style="font-size:21px;font-family:Roboto;fill:white;font-size:20px" >10h30</text>
<line x1="0" y1="245" x2="1920" y2="245" style="stroke:white" />
<text x="0" y="314" style="font-size:21px;font-family:Roboto;fill:white;font-size:20px" >11h00</text>
<line x1="0" y1="294" x2="1920" y2="294" style="stroke:white" />
<text x="0" y="363" style="font-size:21px;font-family:Roboto;fill:white;font-size:20px" >11h30</text>
<line x1="0" y1="343" x2="1920" y2="343" style="stroke:white" />
<text x="0" y="412" style="font-size:21px;font-family:Roboto;fill:white;font-size:20px" >12h00</text>
<line x1="0" y1="392" x2="1920" y2="392" style="stroke:white" />
<text x="0" y="461" style="font-size:21px;font-family:Roboto;fill:white;font-size:20px" >12h30</text>
<line x1="0" y1="441" x2="1920" y2="441" style="stroke:white" />
<text x="0" y="510" style="font-size:21px;font-family:Roboto;fill:white;font-size:20px" >13h00</text>
<line x1="0" y1="490" x2="1920" y2="490" style="stroke:white" />
<text x="0" y="559" style="font-size:21px;font-family:Roboto;fill:white;font-size:20px" >13h30</text>
<line x1="0" y1="539" x2="1920" y2="539" style="stroke:white" />
<text x="0" y="608" style="font-size:21px;font-family:Roboto;fill:white;font-size:20px" >14h00</text>
<line x1="0" y1="588" x2="1920" y2="588" style="stroke:white" />
<text x="0" y="657" style="font-size:21px;font-family:Roboto;fill:white;font-size:20px" >14h30</text>
<line x1="0" y1="637" x2="1920" y2="637" style="stroke:white" />
<text x="0" y="706" style="font-size:21px;font-family:Roboto;fill:white;font-size:20px" >15h00</text>
<line x1="0" y1="686" x2="1920" y2="686" style="stroke:white" />
<text x="0" y="755" style="font-size:21px;font-family:Roboto;fill:white;font-size:20px" >15h30</text>
<line x1="0" y1="735" x2="1920" y2="735" style="stroke:white" />
<text x="0" y="804" style="font-size:21px;font-family:Roboto;fill:white;font-size:20px" >16h00</text>
<line x1="0" y1="784" x2="1920" y2="784" style="stroke:white" />
<text x="0" y="853" style="font-size:21px;font-family:Roboto;fill:white;font-size:20px" >16h30</text>
<line x1="0" y1="833" x2="1920" y2="833" style="stroke:white" />
<text x="0" y="902" style="font-size:21px;font-family:Roboto;fill:white;font-size:20px" >17h00</text>
<line x1="0" y1="882" x2="1920" y2="882" style="stroke:white" />
<text x="0" y="951" style="font-size:21px;font-family:Roboto;fill:white;font-size:20px" >17h30</text>
<line x1="0" y1="931" x2="1920" y2="931" style="stroke:white" />
<text x="0" y="1000" style="font-size:21px;font-family:Roboto;fill:white;font-size:20px" >18h00</text>
<line x1="0" y1="980" x2="1920" y2="980" style="stroke:white" />
<text x="0" y="1049" style="font-size:21px;font-family:Roboto;fill:white;font-size:20px" >18h30</text>
<line x1="0" y1="1029" x2="1920" y2="1029" style="stroke:white" />
<text x="0" y="1098" style="font-size:21px;font-family:Roboto;fill:white;font-size:20px" >19h00</text>
<line x1="0" y1="1078" x2="1920" y2="1078" style="stroke:white" />
<rect x="1553" y="343" width="358" height="147" rx="5" ry="5" style="stroke:#10A4C4;stroke-width:3;fill:#32353B" />
<text x="1561" y="367" style="font-size:21px;font-family:Roboto;fill:white" >Compta Géné TD S1</text>
<text x="1561" y="391" style="font-size:21px;font-family:Roboto;fill:#40AD7B" >POUJADE PHILIPPE</text>
<text x="1838" y="365" style="font-size:20px;font-family:Roboto;fill:white" >11h30</text>
<text x="1838" y="482" style="font-size:20px;font-family:Roboto;fill:white" >13h00</text>
<rect x="449" y="170" width="358" height="147" rx="5" ry="5" style="stroke:#F04747;stroke-width:3;fill:#32353B" />
<text x="457" y="194" style="font-size:21px;font-family:Roboto;fill:white" >BdD CM S1</text>
<text x="457" y="218" style="font-size:21px;font-family:Roboto;fill:#40AD7B" >DECOURCHELLE INES</text>
<text x="734" y="192" style="font-size:20px;font-family:Roboto;fill:white" >09h44</text>
<text x="734" y="309" style="font-size:20px;font-family:Roboto;fill:white" >11h14</text>
<rect x="81" y="590" width="358" height="294" rx="5" ry="5" style="stroke:#10A4C4;stroke-width:3;fill:#32353B" />
<text x="89" y="614" style="font-size:21px;font-family:Roboto;fill:white" >Data Exp S1</text>
<text x="89" y="638" style="font-size:21px;font-family:Roboto;fill:#40AD7B" >JOURDAN ASTRID</text>
<text x="366" y="612" style="font-size:20px;font-family:Roboto;fill:white" >14h01</text>
<text x="366" y="876" style="font-size:20px;font-family:Roboto;fill:white" >17h01</text>
<rect x="81" y="171" width="358" height="319" rx="5" ry="5" style="stroke:#10A4C4;stroke-width:3;fill:#32353B" />
<text x="89" y="195" style="font-size:21px;font-family:Roboto;fill:white" >PAU E101 LABO DE LANGUES 49p</text>
<text x="89" y="219" style="font-size:21px;font-family:Roboto;fill:#40AD7B" >GALAN SEBASTIEN</text>
<text x="366" y="193" style="font-size:20px;font-family:Roboto;fill:white" >09h45</text>
<text x="366" y="482" style="font-size:20px;font-family:Roboto;fill:white" >13h00</text>
<rect x="817" y="760" width="358" height="147" rx="5" ry="5" style="stroke:#F04747;stroke-width:3;fill:#32353B" />
<text x="825" y="784" style="font-size:21px;font-family:Roboto;fill:white" >Théorie de l&#39;info CM</text>
<text x="825" y="808" style="font-size:21px;font-family:Roboto;fill:#40AD7B" >Vac_tempo_CYTECH_16</text>
<text x="1102" y="782" style="font-size:20px;font-family:Roboto;fill:white" >15h45</text>
<text x="1102" y="899" style="font-size:20px;font-family:Roboto;fill:white" >17h15</text>
<rect x="1185" y="810" width="358" height="49" rx="5" ry="5" style="stroke:black;stroke-width:3;fill:#32353B" />
<text x="1193" y="834" style="font-size:21px;font-family:Roboto;fill:white" >PAU A002 AMPHITHÉÂTRE 202p</text>
<text x="1193" y="858" style="font-size:21px;font-family:Roboto;fill:#40AD7B" >ASSOCIATION</text>
<text x="1470" y="832" style="font-size:20px;font-family:Roboto;fill:white" >16h15</text>
<text x="1470" y="851" style="font-size:20px;font-family:Roboto;fill:white" >16h45</text>
<rect x="1185" y="171" width="358" height="147" rx="5" ry="5" style="stroke:#F04747;stroke-width:3;fill:#32353B" />
<text x="1193" y="195" style="font-size:21px;font-family:Roboto;fill:white" >Probabilités CM</text>
<text x="1193" y="219" style="font-size:21px;font-family:Roboto;fill:#40AD7B" >Vac_tempo_CYTECH_17</text>
<text x="1470" y="193" style="font-size:20px;font-family:Roboto;fill:white" >09h45</text>
<text x="1470" y="310" style="font-size:20px;font-family:Roboto;fill:white" >11h15</text>
<rect x="1553" y="589" width="358" height="147" rx="5" ry="5" style="stroke:#10A4C4;stroke-width:3;fill:#32353B" />
<text x="1561" y="613" style="font-size:21px;font-family:Roboto;fill:white" >Probabilités CM</text>
<text x="1561" y="637" style="font-size:21px;font-family:Roboto;fill:#40AD7B" >Vac_tempo_CYTECH_17</text>
<text x="1838" y="611" style="font-size:20px;font-family:Roboto;fill:white" >14h00</text>
<text x="1838" y="728" style="font-size:20px;font-family:Roboto;fill:white" >15h30</text>
<rect x="1553" y="165" width="358" height="147" rx="5" ry="5" style="stroke:#10A4C4;stroke-width:3;fill:#32353B" />
<text x="1561" y="189" style="font-size:21px;font-family:Roboto;fill:white" >BdD TD S1</text>
<text x="1561" y="213" style="font-size:21px;font-family:Roboto;fill:#40AD7B" >Vac_tempo_CYTECH_18</text>
<text x="1838" y="187" style="font-size:20px;font-family:Roboto;fill:white" >09h41</text>
<text x="1838" y="304" style="font-size:20px;font-family:Roboto;fill:white" >11h11</text>
<rect x="449" y="0" width="358" height="147" rx="5" ry="5" style="stroke:#F04747;stroke-width:3;fill:#32353B" />
<text x="457" y="24" style="font-size:21px;font-family:Roboto;fill:white" >Système d&#39;Exploitation CM</text>
<text x="457" y="48" style="font-size:21px;font-family:Roboto;fill:#40AD7B" >LORENZO DEL CASTILLO JUAN ANGEL</text>
<text x="734" y="22" style="font-size:20px;font-family:Roboto;fill:white" >08h00</text>
<text x="734" y="139" style="font-size:20px;font-family:Roboto;fill:white" >09h30</text>
<rect x="449" y="760" width="358" height="147" rx="5" ry="5" style="stroke:#10A4C4;stroke-width:3;fill:#32353B" />
<text x="457" y="784" style="font-size:21px;font-family:Roboto;fill:white" >Système d&#39;Exploitation TD</text>
<text x="457" y="808" style="font-size:21px;font-family:Roboto;fill:#40AD7B" >LORENZO DEL CASTILLO JUAN ANGEL</text>
<text x="734" y="782" style="font-size:20px;font-family:Roboto;fill:white" >15h45</text>
<text x="734" y="899" style="font-size:20px;font-family:Roboto;fill:white" >17h15</text>
<rect x="817" y="589" width="358" height="147" rx="5" ry="5" style="stroke:#F04747;stroke-width:3;fill:#32353B" />
<text x="825" y="613" style="font-size:21px;font-family:Roboto;fill:white" >Algo Proc CM S1</text>
<text x="825" y="637" style="font-size:21px;font-family:Roboto;fill:#40AD7B" >RANISAVLJEVIC ELISABETH</text>
<text x="1102" y="611" style="font-size:20px;font-family:Roboto;fill:white" >14h00</text>
<text x="1102" y="728" style="font-size:20px;font-family:Roboto;fill:white" >15h30</text>
<rect x="1185" y="343" width="358" height="147" rx="5" ry="5" style="stroke:#10A4C4;stroke-width:3;fill:#32353B" />
<text x="1193" y="367" style="font-size:21px;font-family:Roboto;fill:white" >Algo Proc CM S1</text>
<text x="1193" y="391" style="font-size:21px;font-family:Roboto;fill:#40AD7B" >RANISAVLJEVIC ELISABETH</text>
<text x="1470" y="365" style="font-size:20px;font-family:Roboto;fill:white" >11h30</text>
<text x="1470" y="482" style="font-size:20px;font-family:Roboto;fill:white" >13h00</text>
<rect x="1553" y="760" width="358" height="147" rx="5" ry="5" style="stroke:#10A4C4;stroke-width:3;fill:#32353B" />
<text x="1561" y="784" style="font-size:21px;font-family:Roboto;fill:white" >Théorie de l&#39;info TD</text>
<text x="1561" y="808" style="font-size:21px;font-family:Roboto;fill:#40AD7B" >Vac_tempo_CYTECH_16</text>
<text x="1838" y="782" style="font-size:20px;font-family:Roboto;fill:white" >15h45</text>
<text x="1838" y="899" style="font-size:20px;font-family:Roboto;fill:white" >17h15</text>
<rect x="449" y="932" width="358" height="147" rx="5" ry="5" style="stroke:#10A4C4;stroke-width:3;fill:#32353B" />
<text x="457" y="956" style="font-size:21px;font-family:Roboto;fill:white" >PAU E101 LABO DE LANGUES 49p</text>
<text x="457" y="980" style="font-size:21px;font-family:Roboto;fill:#40AD7B" >Vac_tempo_CYTECH_15</text>
<text x="734" y="954" style="font-size:20px;font-family:Roboto;fill:white" >17h30</text>
<text x="734" y="1071" style="font-size:20px;font-family:Roboto;fill:white" >19h00</text>
</svg>
